<?xml version="1.0" standalone="no"?>
<!DOCTYPE svg PUBLIC "-//W3C//DTD SVG 20010904//EN"
 "http://www.w3.org/TR/2001/REC-SVG-20010904/DTD/svg10.dtd">
<svg version="1.0" xmlns="http://www.w3.org/2000/svg"
 width="1280.000000pt" height="640.000000pt" viewBox="0 0 1280.000000 640.000000"
 preserveAspectRatio="xMidYMid meet">
<g transform="translate(0.000000,640.000000) scale(0.100000,-0.100000)"
fill="#000000" stroke="none">
<path d="M3232 5649 c-59 -4 -77 -10 -100 -31 -19 -19 -42 -28 -77 -31 -59 -6
-161 -29 -170 -39 -13 -13 42 -39 69 -32 14 3 56 0 92 -7 61 -12 73 -11 156
10 90 23 117 20 105 -11 -8 -22 -114 -51 -212 -58 -85 -6 -88 -7 -60 -19 17
-7 50 -16 75 -20 36 -5 45 -10 45 -26 0 -18 -7 -20 -83 -20 -45 0 -82 -1 -82
-2 0 0 16 -10 35 -22 19 -11 35 -24 35 -29 0 -17 -38 -20 -66 -6 -36 19 -43
18 -37 -6 3 -11 15 -22 27 -24 49 -10 226 -15 226 -7 0 5 -11 12 -25 15 -55
14 -19 46 51 46 17 0 53 8 80 17 47 17 48 17 20 23 -39 7 -44 27 -9 41 15 6
40 17 55 24 18 9 45 12 75 9 64 -8 157 33 158 68 0 20 11 26 103 53 56 16 101
34 99 40 -2 5 -39 11 -83 13 -48 2 -84 8 -94 16 -17 16 -281 25 -408 15z"/>
<path d="M4635 5643 c-25 -14 -37 -14 -92 -3 -74 14 -99 9 -84 -18 18 -34 -6
-42 -126 -42 -96 0 -113 -2 -122 -17 -8 -15 -14 -16 -39 -7 -17 7 -36 8 -43 3
-8 -5 -40 -9 -71 -9 -47 0 -59 -4 -68 -20 -12 -23 -32 -25 -59 -8 -17 10 -23
8 -39 -12 -14 -17 -37 -27 -88 -36 -38 -7 -59 -13 -46 -13 49 -2 32 -55 -29
-86 -14 -8 -54 -17 -90 -21 -88 -9 -118 -22 -59 -25 70 -2 104 -12 108 -31 3
-14 -6 -19 -38 -24 -22 -4 -43 -11 -46 -15 -11 -19 45 -26 146 -18 58 4 130 8
161 8 l55 1 77 -76 c42 -41 79 -84 82 -95 4 -10 11 -17 16 -13 18 11 57 -5 64
-26 3 -10 2 -27 -4 -38 -8 -15 -4 -20 20 -31 28 -12 39 -43 20 -55 -5 -4 -8
-23 -6 -43 2 -26 -5 -49 -21 -74 l-23 -38 22 -3 c15 -2 23 -11 25 -28 6 -45
103 -130 147 -130 10 0 32 -7 51 -16 31 -15 36 -15 59 0 14 9 25 26 25 37 0
11 11 39 25 63 38 65 105 108 186 120 44 6 89 35 89 57 0 24 106 56 205 62 55
3 118 12 140 21 l40 15 -36 0 c-52 1 -63 19 -34 54 13 15 28 27 34 27 5 0 13
5 17 12 5 8 0 9 -15 5 -31 -8 -51 1 -51 24 0 10 -7 22 -17 27 -26 15 -8 42 28
42 18 0 41 7 50 16 17 15 22 15 66 1 42 -14 49 -14 59 -2 6 8 21 15 33 15 33
0 25 17 -15 30 -22 8 -34 17 -30 25 3 8 -2 19 -10 26 -14 12 -14 14 2 26 10 7
26 13 37 13 14 0 17 4 12 18 -19 45 -18 62 8 71 34 13 44 31 23 43 -9 5 -16
15 -16 23 0 16 15 21 84 31 27 4 61 13 75 20 14 8 35 14 46 14 13 0 16 3 8 11
-7 7 -28 7 -69 0 -33 -5 -99 -12 -147 -15 -74 -4 -89 -3 -94 11 -9 23 -158 11
-284 -23 -93 -25 -129 -27 -129 -5 0 6 10 16 22 22 35 19 184 58 248 65 l58 6
-21 21 c-19 19 -25 20 -151 9 -185 -17 -199 -16 -193 7 4 15 -2 20 -32 25 -59
10 -104 6 -136 -11z m485 -608 c0 -8 -7 -15 -15 -15 -8 0 -15 7 -15 15 0 8 7
15 15 15 8 0 15 -7 15 -15z"/>
<path d="M9402 5499 c-38 -15 -15 -32 35 -26 50 5 64 14 43 27 -19 12 -48 12
-78 -1z"/>
<path d="M2762 5484 c-5 -8 -20 -18 -35 -22 -44 -12 -35 -26 23 -38 58 -11 80
-36 39 -47 -11 -3 -18 -10 -14 -16 9 -16 69 -13 115 5 24 10 51 14 67 10 l26
-7 -31 36 c-18 20 -32 39 -32 43 0 4 -19 12 -42 18 -24 7 -58 16 -75 22 -26 8
-34 8 -41 -4z"/>
<path d="M7717 5493 c-11 -11 -8 -21 10 -27 15 -6 32 8 33 27 0 9 -34 9 -43 0z"/>
<path d="M7834 5489 c-12 -20 13 -32 35 -17 12 8 18 18 14 21 -10 11 -41 8
-49 -4z"/>
<path d="M7936 5475 c4 -8 15 -15 25 -15 23 0 25 16 3 24 -25 10 -34 7 -28 -9z"/>
<path d="M8096 5475 c7 -17 20 -20 28 -6 3 5 -1 12 -10 15 -22 9 -24 8 -18 -9z"/>
<path d="M6866 5444 c-3 -9 -6 -18 -6 -20 0 -9 83 -3 103 8 l22 12 -25 7 c-46
13 -88 10 -94 -7z"/>
<path d="M6750 5440 c0 -5 16 -10 36 -10 21 0 33 4 29 10 -3 6 -19 10 -36 10
-16 0 -29 -4 -29 -10z"/>
<path d="M9395 5431 c-16 -7 -7 -11 40 -20 33 -7 73 -16 89 -22 45 -14 56 -11
56 16 0 28 -10 31 -41 13 -17 -11 -22 -10 -33 5 -14 18 -74 22 -111 8z"/>
<path d="M6512 5403 c3 -31 17 -33 106 -18 33 6 42 5 42 -7 0 -8 -4 -18 -9
-23 -4 -6 -11 -24 -14 -42 -10 -54 18 -50 77 13 47 49 51 56 35 65 -10 5 -25
9 -34 9 -9 0 -29 6 -44 14 -24 13 -31 13 -56 0 -36 -18 -74 -18 -81 1 -10 25
-26 17 -22 -12z"/>
<path d="M2402 5386 c26 -7 54 -19 63 -26 8 -7 18 -11 20 -8 13 13 -69 49
-109 47 -12 0 0 -6 26 -13z"/>
<path d="M9668 5384 c-44 -24 -33 -31 33 -20 53 9 58 12 43 23 -23 17 -42 16
-76 -3z"/>
<path d="M6850 5330 c0 -5 7 -10 16 -10 8 0 12 5 9 10 -3 6 -10 10 -16 10 -5
0 -9 -4 -9 -10z"/>
<path d="M9723 5305 c-23 -10 -32 -21 -35 -42 -3 -27 -5 -28 -78 -36 -41 -4
-111 -9 -155 -11 -103 -4 -270 -25 -302 -37 -25 -9 -25 -10 -8 -29 31 -34 11
-41 -101 -34 -90 6 -104 5 -104 -8 0 -9 12 -19 26 -22 31 -8 74 -52 74 -77 0
-22 -31 -41 -49 -30 -7 5 -18 19 -25 32 -8 17 -26 28 -61 36 -56 14 -86 10
-67 -9 22 -22 13 -38 -19 -38 -37 0 -68 15 -92 44 -16 20 -18 20 -31 3 -23
-30 -1 -85 38 -92 58 -11 84 -26 115 -66 33 -40 33 -59 1 -59 -32 0 -50 11
-66 41 -20 39 -47 37 -80 -6 -51 -67 -118 -91 -179 -63 -44 20 -27 43 30 43
49 0 50 1 63 40 8 24 11 56 7 80 -3 22 -7 58 -8 80 -2 37 -4 40 -35 43 -27 3
-40 -4 -77 -42 -25 -24 -45 -47 -45 -51 0 -3 16 -22 36 -41 31 -28 35 -36 24
-49 -16 -19 -33 -19 -100 5 -74 26 -156 26 -195 0 -32 -21 -65 -26 -80 -11 -6
6 -34 2 -72 -11 -56 -18 -65 -19 -85 -6 -19 13 -30 13 -92 -2 -39 -10 -95 -29
-125 -43 -62 -29 -96 -24 -96 14 0 15 -7 25 -18 27 -14 3 -17 -1 -11 -21 12
-49 -2 -64 -62 -69 -46 -4 -60 -10 -84 -37 -23 -25 -35 -30 -55 -25 -18 4 -25
2 -25 -9 0 -22 -28 -29 -66 -17 -44 15 -133 118 -113 131 8 5 23 7 34 4 90
-23 136 -28 175 -19 24 5 45 14 47 20 5 14 -97 60 -165 74 -28 7 -54 16 -58
21 -3 5 -41 9 -85 9 -74 0 -80 2 -88 24 -9 21 -17 24 -88 29 -58 3 -82 1 -94
-9 -8 -8 -31 -14 -50 -14 -19 0 -42 -7 -53 -15 -10 -7 -42 -17 -72 -21 -44 -5
-54 -10 -54 -26 0 -12 -12 -24 -35 -34 -19 -8 -35 -18 -35 -22 0 -4 -21 -18
-47 -31 -26 -13 -53 -31 -61 -42 -7 -10 -22 -19 -34 -19 -14 0 -18 -5 -14 -15
3 -8 9 -21 12 -29 10 -25 -33 -58 -65 -51 -21 4 -41 -2 -80 -26 l-52 -33 6
-50 c4 -28 9 -54 12 -58 8 -14 52 -8 97 13 24 12 50 20 58 17 8 -3 29 -34 48
-69 18 -35 34 -65 35 -67 1 -1 26 4 56 11 49 13 54 17 60 48 4 18 19 41 33 52
29 21 33 39 11 57 -39 33 -4 106 64 134 25 10 46 27 56 46 16 31 61 60 93 60
11 0 30 -8 42 -18 29 -23 22 -37 -47 -92 -58 -46 -68 -65 -53 -105 10 -26 13
-27 53 -21 116 19 176 19 203 1 25 -16 26 -19 10 -30 -9 -7 -55 -16 -101 -20
-47 -4 -87 -11 -90 -16 -3 -4 1 -19 10 -33 15 -22 14 -25 -1 -40 -10 -10 -23
-14 -33 -10 -9 3 -26 9 -38 11 -20 5 -23 1 -23 -23 0 -16 -4 -34 -8 -40 -15
-23 -75 -46 -103 -40 -16 3 -57 -3 -94 -15 -48 -15 -70 -17 -84 -9 -11 5 -39
10 -63 10 -24 0 -53 7 -65 15 -20 14 -22 14 -25 -7 -2 -17 -12 -24 -43 -31
-83 -17 -113 -30 -124 -53 -6 -13 -23 -26 -38 -30 -15 -4 -49 -19 -74 -35 -25
-16 -60 -32 -77 -35 -17 -4 -37 -13 -43 -20 -6 -8 -21 -14 -33 -14 -19 -1 -19
-2 7 -21 56 -42 73 -111 36 -145 -19 -17 -34 -19 -135 -16 l-114 3 0 -40 c0
-22 -5 -52 -10 -67 -14 -37 -4 -63 28 -70 15 -4 37 -13 50 -21 19 -12 33 -12
80 -3 92 19 118 34 131 73 10 28 21 39 61 55 33 14 54 30 64 51 16 31 28 36
101 45 22 3 63 8 90 11 48 6 52 5 94 -31 58 -50 193 -118 202 -102 5 8 -12 23
-46 43 -60 34 -127 108 -118 130 3 9 16 18 28 21 18 4 48 -11 124 -61 56 -37
109 -78 119 -92 45 -64 65 -83 88 -83 17 0 24 6 24 20 0 26 37 42 115 49 l60
6 6 41 c10 76 89 154 157 154 25 0 35 -5 41 -24 13 -34 41 -42 41 -12 0 26 12
33 77 45 57 11 71 1 56 -39 -11 -30 -11 -31 41 -60 66 -37 89 -62 80 -84 -14
-37 -91 -46 -184 -21 -30 8 -70 15 -89 15 -39 0 -143 -25 -188 -46 -17 -7 -36
-14 -42 -14 -18 0 -13 -46 8 -71 18 -23 25 -24 150 -24 75 0 135 -5 140 -10
21 -21 -41 -174 -78 -194 -24 -13 -258 3 -331 23 -88 25 -116 21 -155 -19 -38
-41 -44 -41 -159 7 -38 15 -87 33 -109 39 -68 18 -90 37 -83 74 13 66 8 68
-138 61 -78 -5 -174 -18 -241 -33 -71 -16 -125 -23 -152 -19 -37 5 -45 2 -76
-27 -19 -18 -46 -40 -60 -50 -18 -12 -27 -27 -27 -43 0 -38 -27 -77 -74 -107
-23 -14 -72 -58 -109 -96 l-67 -69 0 -91 c0 -59 -5 -104 -15 -128 l-15 -36 68
-71 c37 -39 74 -84 80 -101 15 -35 73 -79 131 -100 33 -11 63 -12 163 -4 68 5
154 17 191 25 78 18 123 13 163 -19 22 -17 39 -21 75 -19 69 5 79 -9 79 -120
l0 -91 43 -47 c62 -69 95 -129 102 -185 6 -43 2 -59 -24 -115 -38 -80 -39 -99
-2 -164 16 -28 37 -81 45 -119 18 -77 39 -122 103 -218 35 -52 44 -74 39 -93
-12 -49 40 -56 208 -31 67 10 113 23 142 40 61 36 122 110 140 173 13 43 22
56 55 75 21 12 41 27 43 33 2 5 -1 34 -6 62 -13 64 -2 79 86 124 87 44 106 67
106 128 0 28 -7 67 -16 88 -38 88 -45 129 -31 164 23 54 95 126 189 189 96 65
159 135 208 233 17 33 28 61 26 63 -2 3 -30 0 -62 -6 -108 -20 -203 -7 -216
29 -1 5 -50 56 -106 114 -92 93 -104 109 -109 148 -6 41 -50 117 -123 212 -16
21 -30 45 -30 53 0 18 27 28 43 15 7 -6 22 -9 33 -6 23 6 76 -47 97 -95 6 -14
28 -42 49 -62 26 -25 38 -45 38 -64 0 -20 15 -43 59 -87 50 -49 61 -67 67
-103 12 -86 13 -87 176 -32 200 68 296 116 347 173 23 26 41 51 41 55 0 5 -13
15 -29 23 -16 9 -42 26 -58 40 l-30 25 -48 -25 c-73 -36 -96 -33 -136 22 -19
25 -49 63 -66 85 -36 45 -42 73 -17 83 35 13 66 5 103 -29 49 -45 98 -65 158
-65 33 0 53 -6 69 -21 19 -18 41 -21 161 -29 125 -7 144 -10 179 -33 21 -14
56 -30 77 -37 34 -11 38 -15 33 -36 -7 -28 14 -33 34 -9 7 8 19 15 26 15 15 0
19 -16 29 -95 7 -59 91 -236 138 -290 l32 -36 23 34 c13 19 25 52 28 73 14
109 9 101 97 158 45 29 104 71 130 94 26 23 60 44 75 47 15 3 49 10 76 17 l49
11 59 -61 c48 -50 58 -66 58 -95 0 -44 9 -50 44 -31 54 27 61 21 92 -75 l28
-89 19 24 c12 16 29 24 50 24 54 0 71 -9 112 -60 22 -27 44 -49 48 -50 4 0 33
16 63 35 l54 35 -6 42 c-9 57 -24 85 -73 133 -23 21 -41 47 -41 57 0 10 19 32
43 49 32 23 49 29 70 25 16 -3 56 3 90 13 34 11 82 23 107 26 75 11 142 59
219 154 31 39 32 43 17 60 -9 10 -13 21 -10 24 4 4 1 14 -7 23 -11 14 -10 17
4 26 16 8 15 13 -13 46 -37 44 -38 66 -5 88 33 22 32 34 -5 34 -45 0 -81 20
-78 44 4 24 56 62 111 78 34 10 41 10 52 -5 7 -10 26 -17 46 -17 38 0 82 -25
76 -43 -2 -7 9 -27 24 -45 16 -18 29 -42 29 -52 0 -20 15 -25 44 -14 22 9 19
32 -9 79 -14 22 -25 48 -25 57 0 9 36 44 82 78 73 55 85 61 115 55 44 -8 80
14 160 97 70 74 102 130 110 197 7 62 -10 81 -66 74 -47 -6 -121 22 -121 47 0
20 110 96 216 150 l72 37 153 -2 c85 -2 165 -6 179 -9 20 -6 33 -1 55 20 39
36 142 84 181 84 31 0 60 -21 47 -33 -10 -11 3 -8 34 6 15 6 37 22 50 35 40
40 78 21 48 -24 -9 -14 -30 -33 -47 -42 -43 -24 -188 -117 -220 -142 -16 -12
-30 -35 -34 -55 -7 -37 13 -135 27 -135 17 0 88 55 92 72 3 10 19 26 36 35 17
10 31 23 31 29 0 6 9 19 19 28 16 15 17 23 9 52 -11 41 8 79 45 93 89 34 175
46 210 30 22 -10 38 -6 118 26 59 24 116 39 156 43 35 2 63 7 63 11 -1 16 -21
36 -52 50 -18 9 -34 25 -36 35 -4 17 1 19 50 13 61 -6 72 -2 82 31 8 25 43 30
52 7 5 -11 15 -14 38 -10 22 4 48 -3 91 -24 58 -29 60 -29 75 -11 8 11 30 26
49 33 31 13 32 15 15 25 -39 20 -80 24 -94 7 -18 -22 -39 -18 -52 10 -23 51
-161 98 -333 115 -55 6 -115 12 -132 15 -28 5 -33 3 -33 -13 0 -33 -25 -46
-62 -32 -18 7 -96 16 -172 20 -138 7 -140 8 -163 36 l-23 29 -124 -3 c-78 -2
-127 1 -131 8 -3 5 -15 10 -26 10 -11 0 -32 12 -46 27 -26 25 -29 26 -72 13
-87 -24 -91 -24 -91 -1 0 20 -5 21 -79 21 -71 0 -80 -2 -86 -20 -11 -34 -38
-40 -157 -35 -105 3 -116 2 -132 -16 -12 -14 -23 -18 -39 -13 -36 10 -115 55
-133 75 -18 20 -11 39 14 39 15 0 15 2 2 10 -22 14 -85 12 -166 -5 -58 -12
-81 -13 -120 -3 -27 6 -87 13 -134 14 -47 1 -104 7 -127 13 -38 10 -45 9 -62
-8 -34 -34 -166 -42 -166 -11 0 22 114 74 208 94 34 8 37 41 5 50 -13 3 -64 6
-114 6 -97 0 -154 13 -154 35 0 22 -13 24 -47 10z m-2512 -713 c30 -25 20 -52
-19 -52 -33 0 -67 32 -59 55 9 21 50 19 78 -3z m725 -546 c15 -12 17 -18 8
-33 -6 -10 -22 -20 -35 -23 -31 -8 -36 -36 -11 -63 11 -12 21 -29 24 -37 2 -8
17 -14 34 -15 35 0 48 -33 15 -42 -19 -5 -19 -7 -6 -26 22 -31 19 -84 -4 -97
-45 -23 -140 -2 -154 34 -4 9 1 32 9 52 14 34 14 38 -4 58 -30 32 -64 105 -60
129 4 26 52 55 110 66 23 5 46 9 49 10 3 1 14 -5 25 -13z m282 -47 c4 -33 -32
-68 -55 -53 -27 17 -26 32 2 59 30 31 49 28 53 -6z"/>
<path d="M1784 5255 c-19 -14 -19 -14 2 -15 12 0 27 7 34 15 17 20 -9 21 -36
0z"/>
<path d="M2192 5225 c-11 -23 -10 -25 13 -25 32 0 39 14 16 34 -17 15 -18 15
-29 -9z"/>
<path d="M2510 5230 c0 -13 7 -20 20 -20 23 0 26 10 8 28 -18 18 -28 15 -28
-8z"/>
<path d="M2770 5242 c0 -21 40 -42 86 -47 41 -4 44 -3 16 4 -18 5 -43 18 -56
30 -23 21 -46 28 -46 13z"/>
<path d="M1950 5220 c0 -12 24 -12 60 0 21 7 19 8 -17 9 -24 1 -43 -3 -43 -9z"/>
<path d="M8180 5215 c-30 -8 -67 -14 -82 -15 -16 0 -28 -5 -28 -10 0 -6 -11
-20 -25 -32 -15 -13 -23 -28 -20 -39 4 -12 -2 -18 -24 -22 -16 -3 -36 -13 -45
-22 -15 -15 -14 -19 19 -41 37 -25 65 -31 65 -15 0 6 -4 13 -10 16 -20 12 -9
39 33 77 60 57 116 87 189 103 55 12 58 13 23 13 -22 0 -65 -6 -95 -13z"/>
<path d="M10970 5215 c0 -10 10 -15 34 -15 38 0 55 14 30 24 -29 11 -64 6 -64
-9z"/>
<path d="M2058 5202 c22 -22 52 -27 87 -13 15 6 12 9 -20 14 -22 4 -51 10 -64
14 l-24 6 21 -21z"/>
<path d="M11080 5210 c0 -5 5 -10 10 -10 6 0 10 5 10 10 0 6 -4 10 -10 10 -5
0 -10 -4 -10 -10z"/>
<path d="M2975 5190 c-58 -5 -45 -7 70 -8 77 -1 147 3 155 8 17 11 -107 11
-225 0z"/>
<path d="M1713 5144 c-7 -3 -13 -16 -13 -28 0 -12 -5 -27 -12 -34 -16 -16 7
-42 37 -42 21 0 78 23 135 56 14 7 33 14 42 14 24 0 32 18 11 24 -29 8 -187
16 -200 10z"/>
<path d="M2723 5130 c-25 -10 -29 -26 -13 -50 8 -13 12 -12 24 6 9 12 27 25
41 28 14 4 25 11 25 16 0 12 -47 12 -77 0z"/>
<path d="M11080 5130 c0 -5 5 -10 11 -10 5 0 7 5 4 10 -3 6 -8 10 -11 10 -2 0
-4 -4 -4 -10z"/>
<path d="M2533 5120 c-13 -5 -23 -14 -23 -19 0 -5 -3 -16 -6 -24 -7 -19 47
-38 86 -30 33 6 37 15 15 33 -8 7 -15 21 -15 31 0 21 -20 24 -57 9z"/>
<path d="M3216 5110 c7 -7 19 -7 35 -1 23 9 22 10 -10 10 -24 1 -32 -2 -25 -9z"/>
<path d="M2908 5093 c-35 -22 -36 -52 -3 -83 25 -23 35 -25 193 -31 226 -9
310 -30 369 -94 23 -25 50 -45 60 -45 28 0 47 -16 40 -34 -5 -13 -19 -16 -64
-14 -53 3 -58 1 -61 -19 -3 -18 -10 -23 -35 -24 -18 0 -50 -4 -72 -8 -36 -7
-33 -8 25 -7 65 1 70 -1 205 -65 31 -15 135 -37 135 -29 0 4 -12 10 -27 13
-34 7 -71 33 -61 43 10 9 88 -14 88 -26 0 -6 9 -10 20 -10 34 0 22 27 -36 78
-59 52 -62 66 -17 83 20 7 35 4 70 -16 56 -31 73 -31 95 -1 l18 24 -81 26
c-44 14 -85 26 -91 26 -6 0 -20 7 -29 16 -14 12 -16 21 -9 35 13 23 -10 37
-75 46 -26 3 -52 11 -58 18 -7 6 -30 14 -51 18 -21 3 -49 15 -61 27 -25 24
-85 27 -118 6 -36 -23 -117 -1 -131 36 -23 62 -104 18 -90 -49 9 -44 -13 -53
-43 -18 -17 19 -23 37 -21 59 3 28 0 31 -27 33 -16 2 -42 -5 -57 -14z"/>
<path d="M1942 5082 c-35 -11 -43 -18 -40 -36 3 -19 10 -21 73 -24 90 -3 115
-9 115 -27 0 -15 -20 -22 -75 -27 l-30 -3 32 -18 c40 -22 66 -21 178 2 70 15
101 17 140 10 27 -5 55 -7 62 -4 20 7 15 23 -9 30 -34 11 -66 44 -78 81 -16
46 -49 44 -64 -3 -9 -28 -25 -29 -68 -4 -33 20 -101 22 -155 5 -17 -5 -25 -1
-30 13 -8 19 -10 19 -51 5z"/>
<path d="M5247 5024 c3 -7 9 -14 14 -14 14 0 10 17 -5 23 -10 4 -13 1 -9 -9z"/>
<path d="M2672 5008 c-19 -19 -15 -27 23 -42 41 -18 43 -26 11 -63 -22 -25
-31 -28 -103 -31 -200 -9 -237 -7 -272 11 -19 9 -37 17 -42 17 -13 0 -69 -54
-69 -68 0 -25 -30 -24 -61 2 -27 23 -39 26 -112 26 -94 0 -112 7 -102 40 7 22
5 23 -31 17 -24 -4 -66 1 -117 14 -52 14 -97 19 -126 16 -25 -3 -65 0 -88 6
-37 10 -49 8 -123 -21 -81 -32 -140 -41 -140 -22 0 6 -3 10 -8 10 -4 0 -6 -18
-4 -40 4 -35 2 -40 -17 -40 -14 0 -27 11 -37 34 -16 33 -17 33 -158 60 -77 15
-208 33 -291 41 -82 8 -170 19 -195 24 -25 6 -63 10 -85 10 -45 1 -184 -41
-230 -69 -16 -10 -45 -21 -63 -25 -17 -3 -32 -11 -32 -16 0 -11 54 -39 105
-54 42 -13 58 -40 33 -56 -7 -5 -43 -6 -79 -3 -37 4 -74 2 -83 -3 -15 -8 -15
-11 5 -29 21 -19 57 -22 154 -12 24 2 31 -1 33 -18 4 -27 -43 -63 -92 -71 -20
-3 -43 -14 -52 -24 -15 -17 -15 -20 0 -43 10 -16 29 -27 53 -32 21 -3 49 -13
62 -21 13 -9 53 -18 88 -21 69 -5 86 -19 64 -53 -9 -15 -8 -19 2 -19 27 0 105
59 140 108 45 61 72 74 107 52 12 -7 12 -12 -5 -29 -10 -12 -15 -24 -12 -27 8
-8 57 23 57 36 0 24 49 29 92 10 24 -10 86 -26 138 -34 52 -8 118 -22 145 -31
28 -8 65 -15 84 -15 25 0 41 -8 65 -34 17 -19 52 -44 78 -55 50 -21 68 -44 68
-86 0 -17 8 -29 25 -37 14 -6 25 -17 25 -24 0 -7 9 -16 20 -19 11 -3 20 -14
20 -24 0 -12 15 -24 44 -35 25 -10 65 -33 91 -52 37 -29 46 -41 43 -62 -2 -21
-9 -28 -29 -30 -26 -3 -27 -4 -31 -100 -5 -114 5 -165 39 -192 14 -11 38 -40
54 -64 16 -26 46 -55 70 -68 23 -13 52 -29 65 -36 12 -7 37 -37 53 -66 31 -54
78 -107 53 -59 -7 12 -12 31 -12 42 0 17 6 21 30 21 23 0 35 -9 58 -42 17 -24
76 -89 132 -146 71 -71 105 -113 109 -134 4 -17 18 -40 31 -50 45 -33 246 -98
305 -98 38 0 73 -9 122 -31 37 -17 92 -37 121 -44 65 -17 106 -45 121 -84 9
-20 18 -27 30 -24 9 2 25 -5 35 -16 11 -12 28 -21 39 -21 19 0 19 2 -6 28 -22
22 -26 38 -29 92 l-3 65 -80 10 c-93 12 -98 19 -66 95 28 64 27 80 -4 80 -39
0 -73 -20 -86 -51 -21 -52 -139 -64 -198 -22 -14 11 -36 39 -49 64 -21 39 -23
53 -17 123 3 44 11 86 18 94 6 8 32 24 57 34 36 16 59 19 116 14 39 -3 79 -8
88 -12 12 -5 19 0 23 15 7 27 36 34 123 29 84 -4 115 -24 139 -87 15 -42 43
-72 56 -60 3 4 -6 39 -21 79 -14 39 -23 82 -20 94 3 12 29 39 58 61 29 22 70
56 90 76 35 35 36 38 26 72 -13 42 3 72 35 63 12 -3 31 8 58 35 21 21 48 39
58 39 33 0 51 11 51 32 0 49 18 60 150 99 l75 21 -28 22 c-33 26 -34 44 -4 56
21 8 20 9 -7 9 -16 1 -55 -11 -88 -26 -110 -49 -94 10 17 66 36 18 80 27 179
37 170 16 221 31 221 64 0 24 -3 25 -65 25 -53 0 -65 3 -68 18 -2 9 1 17 5 17
5 0 18 6 28 14 17 12 14 15 -34 31 -33 11 -58 26 -68 43 -10 15 -30 42 -45 60
-15 18 -28 39 -28 47 0 21 -17 19 -50 -5 -16 -11 -49 -23 -75 -26 -39 -6 -49
-4 -71 17 -19 18 -24 31 -20 51 5 25 0 29 -58 57 -84 41 -167 44 -192 6 -8
-13 -13 -33 -10 -43 4 -11 2 -32 -5 -48 -9 -24 -7 -36 12 -71 l23 -42 -27 -53
c-15 -29 -27 -69 -27 -88 0 -43 -24 -80 -52 -80 -28 0 -105 46 -118 70 -5 10
-10 32 -10 48 0 31 -17 42 -68 42 -12 0 -61 16 -109 35 -48 19 -95 35 -105 35
-11 0 -27 13 -36 30 -11 19 -25 30 -39 30 -30 0 -53 26 -53 59 0 39 148 181
190 181 57 0 81 23 35 34 -14 4 -25 11 -25 16 0 17 52 32 86 25 23 -4 33 -1
38 10 3 8 17 15 31 15 74 0 139 34 105 55 -5 3 -10 17 -10 30 0 27 -3 30 -46
39 -29 6 -32 5 -37 -23 -7 -33 -60 -76 -83 -67 -8 3 -21 21 -29 40 -20 47 -30
51 -65 25 l-30 -22 -37 38 c-21 22 -37 45 -35 51 3 16 -37 44 -63 44 -12 0
-26 -5 -33 -12z m248 -854 c0 -17 -22 -14 -28 4 -2 7 3 12 12 12 9 0 16 -7 16
-16z m53 -45 c12 -7 38 -26 58 -44 25 -23 53 -35 97 -44 71 -14 82 -25 53 -52
-12 -11 -21 -24 -21 -29 0 -23 -41 -7 -67 25 -15 19 -35 35 -44 35 -20 0 -41
-31 -58 -82 -21 -65 -51 -41 -51 40 0 25 6 36 31 51 37 23 28 28 -76 37 -84 8
-85 12 -9 50 57 27 59 28 87 13z m376 -33 c9 -10 8 -16 -4 -26 -13 -11 -19
-10 -33 4 -15 15 -15 18 -2 26 20 13 26 12 39 -4z m-111 -48 c-7 -19 -38 -22
-38 -4 0 10 9 16 21 16 12 0 19 -5 17 -12z m110 -79 c-2 -7 -37 -24 -78 -39
-41 -15 -89 -34 -107 -41 -34 -14 -55 -7 -36 12 17 17 175 79 201 79 13 0 22
-5 20 -11z"/>
<path d="M8175 4970 c3 -5 11 -10 16 -10 6 0 7 5 4 10 -3 6 -11 10 -16 10 -6
0 -7 -4 -4 -10z"/>
<path d="M2564 4939 c-8 -14 16 -31 34 -24 8 3 19 5 25 5 16 1 -23 30 -39 30
-7 0 -16 -5 -20 -11z"/>
<path d="M7805 4930 c-3 -5 -2 -10 4 -10 5 0 13 5 16 10 3 6 2 10 -4 10 -5 0
-13 -4 -16 -10z"/>
<path d="M5416 4793 c-29 -3 -60 -12 -74 -24 -14 -10 -31 -19 -38 -19 -8 0
-14 -4 -14 -8 0 -19 27 -32 70 -32 43 0 174 31 187 44 12 12 -30 46 -56 44
-14 -1 -48 -3 -75 -5z"/>
<path d="M3015 4742 c3 -12 1 -30 -5 -42 -17 -32 15 -38 61 -12 31 18 43 20
65 12 23 -9 25 -9 15 4 -7 8 -36 22 -64 31 -29 9 -58 19 -66 22 -9 4 -11 0 -6
-15z"/>
<path d="M38 4673 c7 -3 16 -2 19 1 4 3 -2 6 -13 5 -11 0 -14 -3 -6 -6z"/>
<path d="M5887 4453 c-26 -29 -13 -79 23 -92 16 -5 34 -20 41 -32 10 -20 8
-26 -16 -47 -23 -19 -25 -26 -14 -33 8 -5 18 -9 23 -9 4 0 6 -9 3 -20 -5 -20
-2 -21 56 -16 34 3 68 12 76 21 13 13 11 17 -12 35 -15 12 -27 28 -27 35 0 8
-22 33 -50 57 -34 29 -48 48 -44 60 3 10 -2 19 -15 23 -11 3 -21 13 -23 22 -3
13 -6 12 -21 -4z"/>
<path d="M620 4450 c-9 -6 -10 -10 -3 -10 6 0 15 5 18 10 8 12 4 12 -15 0z"/>
<path d="M6397 4394 c-4 -4 -7 -14 -7 -23 0 -11 3 -12 11 -4 6 6 10 16 7 23
-2 6 -7 8 -11 4z"/>
<path d="M5759 4322 c-14 -15 -29 -39 -32 -54 l-7 -27 42 15 c22 8 47 19 55
25 19 17 16 47 -6 59 -25 13 -21 14 -52 -18z"/>
<path d="M11112 4282 c-10 -17 -10 -31 -3 -55 6 -18 14 -44 18 -59 6 -20 12
-25 22 -19 10 7 11 13 2 29 -6 11 -15 45 -19 74 -7 50 -9 52 -20 30z"/>
<path d="M4003 4141 c-41 -26 -47 -38 -25 -50 12 -6 33 -6 61 0 46 10 61 6 61
-17 0 -19 20 -14 34 10 14 22 -15 46 -55 46 -16 0 -32 7 -36 15 -7 12 -13 12
-40 -4z"/>
<path d="M3818 4133 c7 -3 16 -2 19 1 4 3 -2 6 -13 5 -11 0 -14 -3 -6 -6z"/>
<path d="M11087 3983 c-4 -3 -7 -15 -7 -25 0 -11 -11 -23 -25 -28 -29 -11 -31
-22 -10 -40 12 -10 19 -10 27 -2 7 7 20 12 29 12 10 0 39 10 66 21 45 20 47
22 23 29 -14 4 -40 14 -57 23 -36 19 -37 19 -46 10z"/>
<path d="M11031 3818 c-5 -13 -12 -31 -15 -41 -3 -11 -15 -21 -25 -24 -11 -3
-21 -13 -24 -24 -3 -13 -14 -19 -32 -19 -15 0 -38 -9 -51 -19 -14 -11 -44 -22
-67 -26 -45 -6 -157 -54 -157 -66 0 -4 5 -11 10 -14 6 -3 10 -16 10 -29 0 -39
13 -38 51 4 21 23 46 40 59 40 17 0 20 4 15 20 -8 25 20 27 53 5 18 -13 26
-14 44 -3 13 7 47 15 77 18 l54 5 19 55 c10 30 23 59 28 64 14 14 13 49 -2 64
-19 19 -38 14 -47 -10z"/>
<path d="M6370 3820 c0 -5 5 -10 11 -10 5 0 7 5 4 10 -3 6 -8 10 -11 10 -2 0
-4 -4 -4 -10z"/>
<path d="M6560 3730 c19 -13 30 -13 30 0 0 6 -10 10 -22 10 -19 0 -20 -2 -8
-10z"/>
<path d="M2000 3422 c0 -10 43 -52 53 -52 4 0 -2 14 -15 30 -21 29 -38 39 -38
22z"/>
<path d="M2079 3333 c12 -24 31 -39 31 -25 0 5 -10 17 -21 28 -22 19 -22 19
-10 -3z"/>
<path d="M3092 3252 c-11 -8 -11 -10 1 -15 8 -3 19 -1 24 4 12 12 158 -34 184
-57 17 -15 79 -19 79 -5 0 14 -169 72 -225 77 -27 3 -56 1 -63 -4z"/>
<path d="M530 3160 c0 -5 5 -10 10 -10 6 0 10 5 10 10 0 6 -4 10 -10 10 -5 0
-10 -4 -10 -10z"/>
<path d="M3480 3130 c0 -13 50 -13 70 0 11 7 4 10 -27 10 -24 0 -43 -4 -43
-10z"/>
<path d="M10347 3103 c-25 -45 -11 -103 25 -103 20 0 20 1 5 18 -21 23 -21 36
-2 52 21 18 19 40 -4 40 -11 0 -22 -3 -24 -7z"/>
<path d="M3423 2888 c-26 -11 -49 -30 -58 -48 -18 -34 -20 -35 -55 -15 -37 21
-44 18 -21 -11 24 -30 36 -83 27 -118 -3 -14 -28 -50 -55 -81 -55 -63 -69
-102 -49 -135 11 -18 10 -23 -7 -36 -20 -15 -20 -15 8 -62 15 -26 50 -90 77
-144 53 -103 59 -109 182 -178 43 -24 79 -49 82 -56 7 -18 -32 -410 -45 -458
-6 -22 -22 -57 -36 -80 -34 -53 -46 -161 -28 -243 9 -42 -1 -98 -22 -118 -14
-15 -13 -19 12 -45 27 -28 27 -50 -1 -50 -9 0 -14 -11 -14 -34 0 -19 -3 -41
-6 -49 -3 -10 5 -18 27 -26 18 -6 41 -19 51 -28 17 -15 20 -15 48 12 17 16 30
34 30 40 0 6 25 37 55 69 l55 58 -25 20 c-35 28 -33 64 5 86 17 9 33 27 36 39
3 12 12 27 19 33 11 9 11 17 3 36 -14 29 0 44 42 44 15 0 35 11 50 30 21 25
38 32 103 44 43 9 82 18 87 21 18 11 11 41 -15 65 -45 43 -23 64 41 40 57 -22
122 19 206 129 44 58 49 71 45 103 -4 27 0 41 13 53 26 23 191 95 220 95 14 0
36 7 48 16 36 25 74 110 79 178 7 94 8 97 78 168 54 56 65 73 65 101 0 29 -6
36 -57 66 -46 27 -76 35 -143 43 -64 7 -98 17 -136 39 -60 34 -77 36 -113 10
-44 -31 -76 -36 -99 -13 -14 14 -24 17 -36 10 -18 -10 -36 -3 -36 14 0 6 18
28 40 48 l39 36 -20 41 c-24 49 -64 71 -150 83 -63 9 -104 30 -185 96 -47 39
-58 43 -120 47 -38 2 -91 10 -119 17 -78 19 -88 18 -103 -12 -20 -42 -63 -34
-73 13 -4 14 -9 14 -46 -3z"/>
<path d="M9570 2825 c0 -4 8 -19 19 -33 10 -15 25 -43 34 -62 23 -55 113 -136
93 -84 -3 9 -6 22 -6 30 0 8 -28 45 -62 82 -61 66 -78 80 -78 67z"/>
<path d="M8897 2800 c-6 -23 13 -42 32 -31 10 7 11 13 2 30 -15 26 -27 27 -34
1z"/>
<path d="M10471 2809 l-25 -10 22 -22 c18 -17 26 -19 40 -11 21 14 23 48 2 51
-8 1 -26 -2 -39 -8z"/>
<path d="M10154 2714 c-27 -20 -69 -47 -94 -60 -142 -79 -141 -78 -94 -140 31
-40 69 -54 145 -54 55 0 59 1 59 24 0 13 18 46 40 74 40 50 44 75 14 86 -21 8
-17 32 8 48 23 15 19 31 -11 47 -14 8 -29 2 -67 -25z"/>
<path d="M9526 2655 c22 -24 64 -74 94 -110 56 -69 123 -125 146 -125 8 0 20
13 29 30 l15 30 -37 15 c-21 9 -58 35 -83 59 -83 79 -173 146 -196 146 -3 0
11 -20 32 -45z"/>
<path d="M10306 2531 c-8 -12 -11 -80 -4 -86 3 -4 9 3 13 14 3 12 13 21 21 21
21 0 17 33 -6 47 -10 7 -21 9 -24 4z"/>
<path d="M10793 2506 c3 -7 0 -19 -6 -25 -8 -8 -4 -11 16 -11 27 0 27 0 11 25
-18 27 -29 33 -21 11z"/>
<path d="M10906 2471 l-29 -19 40 -20 c47 -24 68 -48 68 -76 0 -16 12 -23 65
-37 62 -16 66 -16 96 2 45 27 83 24 119 -10 16 -16 41 -32 55 -36 l25 -7 -26
28 c-14 16 -30 41 -36 55 -13 30 -110 75 -247 116 -96 28 -94 28 -130 4z"/>
<path d="M10382 2434 c7 -15 14 -21 16 -15 5 16 -5 41 -17 41 -7 0 -6 -10 1
-26z"/>
<path d="M11398 2416 c-29 -10 -38 -26 -15 -26 16 0 54 27 47 32 -3 3 -17 0
-32 -6z"/>
<path d="M9846 2359 c5 -9 169 -32 186 -26 14 5 -13 10 -124 24 -37 5 -65 6
-62 2z"/>
<path d="M10493 2290 c-18 -11 -33 -22 -33 -25 0 -7 72 23 85 36 17 17 -19 10
-52 -11z"/>
<path d="M10732 2196 c-37 -28 -57 -57 -57 -81 0 -27 -54 -32 -111 -10 -42 16
-44 16 -75 -7 -17 -13 -35 -33 -40 -46 -7 -17 -14 -22 -29 -17 -14 4 -20 2
-20 -9 0 -25 -63 -65 -151 -95 -103 -34 -169 -67 -169 -84 0 -6 9 -23 20 -37
23 -30 25 -49 6 -56 -11 -4 -8 -18 16 -69 16 -36 33 -90 37 -121 4 -31 14 -60
22 -65 21 -13 62 -11 102 6 19 8 64 21 99 29 34 8 90 24 123 37 44 16 84 22
150 23 97 1 133 -11 188 -62 l27 -26 30 32 c33 36 65 35 58 -3 -3 -14 2 -26
14 -34 10 -6 18 -17 18 -24 0 -6 19 -32 42 -56 l42 -44 61 6 c46 4 68 2 83 -9
19 -13 25 -12 68 11 26 14 52 25 58 25 21 1 105 192 121 273 21 111 21 114
-22 132 -34 14 -63 38 -184 158 -28 27 -41 50 -45 78 -4 23 -17 53 -29 67 -12
15 -30 42 -40 61 l-17 35 -13 -25 c-7 -13 -16 -40 -20 -59 -9 -46 -52 -120
-70 -120 -41 0 -175 78 -175 101 0 6 7 26 16 45 9 19 14 37 11 40 -3 3 -31 9
-62 13 -49 7 -60 5 -83 -13z"/>
<path d="M7779 2134 c-13 -14 -45 -36 -70 -49 -58 -30 -66 -40 -71 -95 -3 -25
-11 -59 -18 -76 -14 -33 -9 -67 13 -98 19 -26 80 -15 94 17 23 50 93 271 93
292 0 35 -14 38 -41 9z"/>
<path d="M11915 1920 c3 -5 11 -10 16 -10 6 0 7 5 4 10 -3 6 -11 10 -16 10 -6
0 -7 -4 -4 -10z"/>
<path d="M12243 1370 c-10 -27 -9 -33 12 -54 l23 -23 31 36 32 35 -23 18 c-35
27 -62 23 -75 -12z"/>
<path d="M11210 1262 c0 -4 6 -16 13 -26 18 -25 72 -18 72 9 0 16 -8 21 -42
23 -24 2 -43 -1 -43 -6z"/>
<path d="M12125 1223 c-109 -92 -130 -111 -123 -118 3 -4 25 -9 47 -12 37 -5
41 -3 53 23 7 16 32 51 55 79 41 48 53 75 34 75 -5 0 -35 -21 -66 -47z"/>
<path d="M8508 993 c7 -3 16 -2 19 1 4 3 -2 6 -13 5 -11 0 -14 -3 -6 -6z"/>
<path d="M3577 833 c-19 -18 -5 -41 29 -48 48 -9 55 2 21 31 -29 25 -39 28
-50 17z"/>
<path d="M4718 803 c7 -3 16 -2 19 1 4 3 -2 6 -13 5 -11 0 -14 -3 -6 -6z"/>
</g>
</svg>
